<svg id="Layer_1" data-name="Layer 1" xmlns="http://www.w3.org/2000/svg" viewBox="0 0 381.2 88.29"><defs><style>.cls-1{fill:#fff;}</style></defs><title>Gregfins logo white</title><g id="small_logo_dots" data-name="small logo dots"><circle class="cls-1" cx="53.63" cy="44.13" r="1.96"/><circle class="cls-1" cx="58.59" cy="44.13" r="1.96"/><circle class="cls-1" cx="63.54" cy="44.13" r="1.96"/><g id="small_one" data-name="small one"><circle class="cls-1" cx="68.49" cy="44.13" r="1.96"/></g><g id="small_one-2" data-name="small one-2"><circle class="cls-1" cx="67.45" cy="49.55" r="1.96"/></g><g id="small_one-3" data-name="small one-3"><circle class="cls-1" cx="65.5" cy="54.63" r="1.96"/></g><g id="small_one-4" data-name="small one-4"><circle class="cls-1" cx="62.5" cy="59.08" r="1.96"/></g><g id="small_one-5" data-name="small one-5"><circle class="cls-1" cx="58.59" cy="62.75" r="1.96"/></g><g id="small_one-6" data-name="small one-6"><circle class="cls-1" cx="53.8" cy="65.51" r="1.96"/></g><g id="small_one-7" data-name="small one-7"><circle class="cls-1" cx="48.63" cy="66.98" r="1.96"/></g><g id="small_one-8" data-name="small one-8"><circle class="cls-1" cx="43.19" cy="67.27" r="1.96"/></g><g id="small_one-9" data-name="small one-9"><circle class="cls-1" cx="37.83" cy="66.38" r="1.96"/></g><g id="small_one-10" data-name="small one-10"><circle class="cls-1" cx="32.81" cy="64.25" r="1.96"/></g><g id="small_one-11" data-name="small one-11"><circle class="cls-1" cx="28.45" cy="61.01" r="1.96"/></g><g id="small_one-12" data-name="small one-12"><circle class="cls-1" cx="24.9" cy="56.88" r="1.96"/></g><g id="small_one-13" data-name="small one-13"><circle class="cls-1" cx="22.43" cy="52.05" r="1.96"/></g><g id="small_one-14" data-name="small one-14"><circle class="cls-1" cx="21.25" cy="46.85" r="1.96"/></g><g id="small_one-15" data-name="small one-15"><circle class="cls-1" cx="21.25" cy="41.54" r="1.96"/></g><g id="small_one-16" data-name="small one-16"><circle class="cls-1" cx="22.48" cy="36.26" r="1.96"/></g><g id="small_one-17" data-name="small one-17"><circle class="cls-1" cx="24.95" cy="31.48" r="1.96"/></g><g id="small_one-18" data-name="small one-18"><circle class="cls-1" cx="28.45" cy="27.38" r="1.96"/></g><g id="small_one-19" data-name="small one-19"><circle class="cls-1" cx="32.81" cy="24.15" r="1.96"/></g><g id="small_one-20" data-name="small one-20"><circle class="cls-1" cx="37.85" cy="21.99" r="1.96"/></g><g id="small_one-21" data-name="small one-21"><circle class="cls-1" cx="43.19" cy="21.1" r="1.96"/></g><g id="small_one-22" data-name="small one-22"><circle class="cls-1" cx="48.63" cy="21.38" r="1.96"/></g><g id="small_one-23" data-name="small one-23"><circle class="cls-1" cx="53.83" cy="22.91" r="1.96"/></g><g id="small_one-24" data-name="small one-24"><circle class="cls-1" cx="58.61" cy="25.64" r="1.96"/></g><g id="small_one-25" data-name="small one-25"><circle class="cls-1" cx="62.53" cy="29.3" r="1.96"/></g></g><g id="big_logo_dot" data-name="big logo dot"><g id="small_one-26" data-name="small one-26"><circle class="cls-1" cx="72.71" cy="50.78" r="2.41"/></g><g id="small_one-27" data-name="small one-27"><circle class="cls-1" cx="70.31" cy="57" r="2.41"/></g><g id="small_one-28" data-name="small one-28"><circle class="cls-1" cx="66.63" cy="62.47" r="2.41"/></g><g id="small_one-29" data-name="small one-29"><circle class="cls-1" cx="61.82" cy="66.98" r="2.41"/></g><g id="small_one-30" data-name="small one-30"><circle class="cls-1" cx="55.96" cy="70.36" r="2.41"/></g><g id="small_one-31" data-name="small one-31"><circle class="cls-1" cx="49.6" cy="72.16" r="2.41"/></g><g id="small_one-32" data-name="small one-32"><circle class="cls-1" cx="42.93" cy="72.52" r="2.41"/></g><g id="small_one-33" data-name="small one-33"><circle class="cls-1" cx="36.34" cy="71.42" r="2.41"/></g><g id="small_one-34" data-name="small one-34"><circle class="cls-1" cx="30.18" cy="68.82" r="2.41"/></g><g id="small_one-35" data-name="small one-35"><circle class="cls-1" cx="24.83" cy="64.84" r="2.41"/></g><g id="small_one-36" data-name="small one-36"><circle class="cls-1" cx="20.47" cy="59.78" r="2.41"/></g><g id="small_one-37" data-name="small one-37"><circle class="cls-1" cx="17.44" cy="53.84" r="2.41"/></g><g id="small_one-38" data-name="small one-38"><circle class="cls-1" cx="15.99" cy="47.46" r="2.41"/></g><g id="small_one-39" data-name="small one-39"><circle class="cls-1" cx="15.99" cy="40.94" r="2.41"/></g><g id="small_one-40" data-name="small one-40"><circle class="cls-1" cx="17.51" cy="34.46" r="2.41"/></g><g id="small_one-41" data-name="small one-41"><circle class="cls-1" cx="20.54" cy="28.59" r="2.41"/></g><g id="small_one-42" data-name="small one-42"><circle class="cls-1" cx="24.83" cy="23.56" r="2.41"/></g><g id="small_one-43" data-name="small one-43"><circle class="cls-1" cx="30.18" cy="19.59" r="2.41"/></g><g id="small_one-44" data-name="small one-44"><circle class="cls-1" cx="36.38" cy="16.95" r="2.41"/></g><g id="small_one-45" data-name="small one-45"><circle class="cls-1" cx="42.93" cy="15.85" r="2.41"/></g><g id="small_one-46" data-name="small one-46"><circle class="cls-1" cx="49.6" cy="16.2" r="2.41"/></g><g id="small_one-47" data-name="small one-47"><circle class="cls-1" cx="55.99" cy="18.07" r="2.41"/></g><g id="small_one-48" data-name="small one-48"><circle class="cls-1" cx="61.86" cy="21.42" r="2.41"/></g><g id="small_one-49" data-name="small one-49"><circle class="cls-1" cx="66.66" cy="25.91" r="2.41"/></g><g id="Big_one" data-name="Big one"><circle class="cls-1" cx="73.83" cy="44.13" r="2.44"/></g></g><g id="bit_dot_1" data-name="bit dot 1"><circle class="cls-1" cx="44.8" cy="5.11" r="1.35"/><circle class="cls-1" cx="49.01" cy="5.31" r="1.35"/><circle class="cls-1" cx="53.05" cy="5.97" r="1.35"/><circle class="cls-1" cx="57.07" cy="7.04" r="1.35"/><circle class="cls-1" cx="60.81" cy="8.48" r="1.35"/><circle class="cls-1" cx="64.59" cy="10.31" r="1.35"/><circle class="cls-1" cx="68.04" cy="12.52" r="1.35"/><circle class="cls-1" cx="71.28" cy="15.1" r="1.35"/><circle class="cls-1" cx="74.21" cy="18.04" r="1.35"/><circle class="cls-1" cx="76.83" cy="21.17" r="1.35"/><circle class="cls-1" cx="79.11" cy="24.56" r="1.35"/><circle class="cls-1" cx="80.97" cy="28.22" r="1.35"/><circle class="cls-1" cx="82.49" cy="32.03" r="1.35"/><circle class="cls-1" cx="83.53" cy="35.95" r="1.35"/><circle class="cls-1" cx="84.2" cy="39.99" r="1.35"/><circle class="cls-1" cx="84.44" cy="44.13" r="1.35"/><circle class="cls-1" cx="84.2" cy="48.38" r="1.35"/><circle class="cls-1" cx="83.51" cy="52.32" r="1.35"/><circle class="cls-1" cx="82.41" cy="56.3" r="1.35"/><circle class="cls-1" cx="80.95" cy="60.09" r="1.35"/><circle class="cls-1" cx="79.1" cy="63.73" r="1.35"/><circle class="cls-1" cx="76.79" cy="67.14" r="1.35"/><circle class="cls-1" cx="74.17" cy="70.31" r="1.35"/><circle class="cls-1" cx="71.24" cy="73.21" r="1.35"/><circle class="cls-1" cx="68.02" cy="75.79" r="1.35"/><circle class="cls-1" cx="64.51" cy="77.98" r="1.35"/><circle class="cls-1" cx="60.83" cy="79.82" r="1.35"/><circle class="cls-1" cx="56.95" cy="81.27" r="1.35"/><circle class="cls-1" cx="52.93" cy="82.29" r="1.35"/><circle class="cls-1" cx="48.91" cy="82.96" r="1.35"/><circle class="cls-1" cx="44.71" cy="83.18" r="1.35"/><circle class="cls-1" cx="40.52" cy="82.88" r="1.35"/><circle class="cls-1" cx="36.44" cy="82.28" r="1.35"/><circle class="cls-1" cx="32.44" cy="81.19" r="1.35"/><circle class="cls-1" cx="28.62" cy="79.75" r="1.35"/><circle class="cls-1" cx="24.97" cy="77.94" r="1.35"/><circle class="cls-1" cx="21.48" cy="75.65" r="1.35"/><circle class="cls-1" cx="18.22" cy="73.11" r="1.35"/><circle class="cls-1" cx="15.33" cy="70.19" r="1.35"/><circle class="cls-1" cx="12.72" cy="67.06" r="1.35"/><circle class="cls-1" cx="10.49" cy="63.63" r="1.35"/><circle class="cls-1" cx="8.57" cy="59.88" r="1.35"/><circle class="cls-1" cx="7.14" cy="56.14" r="1.35"/><circle class="cls-1" cx="6" cy="52.2" r="1.35"/><circle class="cls-1" cx="5.36" cy="48.2" r="1.35"/><circle class="cls-1" cx="5.17" cy="44.04" r="1.35"/><circle class="cls-1" cx="5.36" cy="40" r="1.35"/><circle class="cls-1" cx="6.03" cy="36" r="1.35"/><circle class="cls-1" cx="7.12" cy="32.06" r="1.35"/><circle class="cls-1" cx="8.64" cy="28.22" r="1.35"/><circle class="cls-1" cx="10.53" cy="24.56" r="1.35"/><circle class="cls-1" cx="12.73" cy="21.17" r="1.35"/><circle class="cls-1" cx="15.36" cy="17.98" r="1.35"/><circle class="cls-1" cx="18.35" cy="15.12" r="1.35"/><circle class="cls-1" cx="21.53" cy="12.55" r="1.35"/><circle class="cls-1" cx="24.99" cy="10.35" r="1.35"/><circle class="cls-1" cx="28.64" cy="8.48" r="1.35"/><circle class="cls-1" cx="32.52" cy="7" r="1.35"/><circle class="cls-1" cx="36.56" cy="5.93" r="1.35"/><circle class="cls-1" cx="40.67" cy="5.34" r="1.35"/></g><g id="bit_dot_1-2" data-name="bit dot 1-2"><circle class="cls-1" cx="44.79" cy="1.48" r="1.48"/><circle class="cls-1" cx="49.4" cy="1.69" r="1.48"/><circle class="cls-1" cx="53.82" cy="2.43" r="1.48"/><circle class="cls-1" cx="58.21" cy="3.59" r="1.48"/><circle class="cls-1" cx="62.3" cy="5.16" r="1.48"/><circle class="cls-1" cx="66.43" cy="7.17" r="1.48"/><circle class="cls-1" cx="70.2" cy="9.58" r="1.48"/><circle class="cls-1" cx="73.74" cy="12.4" r="1.48"/><circle class="cls-1" cx="76.95" cy="15.61" r="1.48"/><circle class="cls-1" cx="79.81" cy="19.04" r="1.48"/><circle class="cls-1" cx="82.31" cy="22.74" r="1.48"/><circle class="cls-1" cx="84.33" cy="26.74" r="1.48"/><circle class="cls-1" cx="85.99" cy="30.9" r="1.48"/><circle class="cls-1" cx="87.13" cy="35.19" r="1.48"/><circle class="cls-1" cx="87.87" cy="39.61" r="1.48"/><circle class="cls-1" cx="88.13" cy="44.13" r="1.48"/><circle class="cls-1" cx="87.87" cy="48.77" r="1.48"/><circle class="cls-1" cx="87.11" cy="53.08" r="1.48"/><circle class="cls-1" cx="85.9" cy="57.43" r="1.48"/><circle class="cls-1" cx="84.31" cy="61.57" r="1.48"/><circle class="cls-1" cx="82.29" cy="65.55" r="1.48"/><circle class="cls-1" cx="79.77" cy="69.28" r="1.48"/><circle class="cls-1" cx="76.9" cy="72.75" r="1.48"/><circle class="cls-1" cx="73.69" cy="75.91" r="1.48"/><circle class="cls-1" cx="70.18" cy="78.74" r="1.48"/><circle class="cls-1" cx="66.35" cy="81.12" r="1.48"/><circle class="cls-1" cx="62.32" cy="83.13" r="1.48"/><circle class="cls-1" cx="58.08" cy="84.72" r="1.48"/><circle class="cls-1" cx="53.68" cy="85.84" r="1.48"/><circle class="cls-1" cx="49.29" cy="86.57" r="1.48"/><circle class="cls-1" cx="44.7" cy="86.81" r="1.48"/><circle class="cls-1" cx="40.12" cy="86.49" r="1.48"/><circle class="cls-1" cx="35.66" cy="85.82" r="1.48"/><circle class="cls-1" cx="31.29" cy="84.63" r="1.48"/><circle class="cls-1" cx="27.11" cy="83.06" r="1.48"/><circle class="cls-1" cx="23.13" cy="81.08" r="1.48"/><circle class="cls-1" cx="19.32" cy="78.58" r="1.48"/><circle class="cls-1" cx="15.74" cy="75.8" r="1.48"/><circle class="cls-1" cx="12.59" cy="72.62" r="1.48"/><circle class="cls-1" cx="9.73" cy="69.19" r="1.48"/><circle class="cls-1" cx="7.3" cy="65.44" r="1.48"/><circle class="cls-1" cx="5.21" cy="61.35" r="1.48"/><circle class="cls-1" cx="3.64" cy="57.25" r="1.48"/><circle class="cls-1" cx="2.39" cy="52.95" r="1.48"/><circle class="cls-1" cx="1.69" cy="48.58" r="1.48"/><circle class="cls-1" cx="1.48" cy="44.03" r="1.48"/><circle class="cls-1" cx="1.69" cy="39.62" r="1.48"/><circle class="cls-1" cx="2.43" cy="35.25" r="1.48"/><circle class="cls-1" cx="3.61" cy="30.93" r="1.48"/><circle class="cls-1" cx="5.27" cy="26.74" r="1.48"/><circle class="cls-1" cx="7.34" cy="22.74" r="1.48"/><circle class="cls-1" cx="9.75" cy="19.03" r="1.48"/><circle class="cls-1" cx="12.62" cy="15.54" r="1.48"/><circle class="cls-1" cx="15.89" cy="12.42" r="1.48"/><circle class="cls-1" cx="19.35" cy="9.62" r="1.48"/><circle class="cls-1" cx="23.15" cy="7.2" r="1.48"/><circle class="cls-1" cx="27.14" cy="5.16" r="1.48"/><circle class="cls-1" cx="31.38" cy="3.55" r="1.48"/><circle class="cls-1" cx="35.79" cy="2.38" r="1.48"/><circle class="cls-1" cx="40.29" cy="1.73" r="1.48"/></g><path class="cls-1" d="M142.71,23.26a13.79,13.79,0,0,1,5.11,7.06V21.08h6V57.91a18.47,18.47,0,0,1-2.11,8.92,15.17,15.17,0,0,1-6,6.07,17.67,17.67,0,0,1-8.91,2.18q-7.32,0-11.94-3.54A15.54,15.54,0,0,1,119,62H125a10.34,10.34,0,0,0,4,5.71,12.78,12.78,0,0,0,7.55,2.07,11.08,11.08,0,0,0,8.09-3.13c2.13-2.09,3.19-5,3.2-8.75V48.08a13.79,13.79,0,0,1-5.11,7.06,15,15,0,0,1-9,2.64,16.46,16.46,0,0,1-8.58-2.24,15.47,15.47,0,0,1-5.85-6.46,21.34,21.34,0,0,1-2.14-9.87,21.59,21.59,0,0,1,2.14-9.9,15.57,15.57,0,0,1,5.91-6.47,16.46,16.46,0,0,1,8.58-2.24A15,15,0,0,1,142.71,23.26ZM126.6,29.5q-3.33,3.53-3.33,9.73T126.6,49a11.63,11.63,0,0,0,8.93,3.53,12.27,12.27,0,0,0,6.37-1.65,11.56,11.56,0,0,0,4.39-4.65,16.2,16.2,0,0,0,0-14,11.21,11.21,0,0,0-4.39-4.66A12.54,12.54,0,0,0,135.53,26a11.6,11.6,0,0,0-8.93,3.53Z"/><path class="cls-1" d="M174.62,22.57a15.46,15.46,0,0,1,8.19-2.08V27H181a12.84,12.84,0,0,0-8.32,2.61c-2.16,1.74-3.23,4.61-3.23,8.61V57.32h-6V21.08h6v7.33A13.22,13.22,0,0,1,174.62,22.57Z"/><path class="cls-1" d="M221.82,40.49h-29c.13,4.13,1.31,7.24,3.53,9.3a11.53,11.53,0,0,0,8.18,3.11,11.84,11.84,0,0,0,7.3-2.21,9.2,9.2,0,0,0,3.59-5.91h6.41A15.16,15.16,0,0,1,213,56.13a19.69,19.69,0,0,1-8.18,1.65,18.85,18.85,0,0,1-9.27-2.24,15.82,15.82,0,0,1-6.3-6.44A20.38,20.38,0,0,1,187,39.23a20.52,20.52,0,0,1,2.28-9.9,15.89,15.89,0,0,1,6.3-6.47,18.78,18.78,0,0,1,9.25-2.24,18.25,18.25,0,0,1,9.2,2.24,15.45,15.45,0,0,1,6,6,16.9,16.9,0,0,1,2.08,8.32A18.31,18.31,0,0,1,221.82,40.49Zm-7.13-9.64a9.68,9.68,0,0,0-4.16-4,12.69,12.69,0,0,0-5.74-1.32,11.94,11.94,0,0,0-8.32,3.07q-3.37,3.07-3.63,9H216A12.34,12.34,0,0,0,214.69,30.85Z"/><path class="cls-1" d="M253.73,23.26a13.77,13.77,0,0,1,5.12,7.06V21.08h6V57.91a18.37,18.37,0,0,1-2.12,8.92,15.15,15.15,0,0,1-5.94,6.07,17.67,17.67,0,0,1-8.91,2.18q-7.32,0-11.95-3.54A15.52,15.52,0,0,1,230.06,62H236a10.29,10.29,0,0,0,4,5.71,12.89,12.89,0,0,0,7.56,2.07,11.08,11.08,0,0,0,8.09-3.13c2.13-2.09,3.19-5,3.2-8.75V48.08a13.77,13.77,0,0,1-5.12,7.06,14.91,14.91,0,0,1-8.94,2.64,16.46,16.46,0,0,1-8.58-2.24,15.49,15.49,0,0,1-5.91-6.46,21.47,21.47,0,0,1-2.15-9.87,21.6,21.6,0,0,1,2.15-9.9,15.57,15.57,0,0,1,5.91-6.47,16.46,16.46,0,0,1,8.58-2.24A14.92,14.92,0,0,1,253.73,23.26Zm-16.1,6.24q-3.34,3.53-3.34,9.73T237.63,49a11.64,11.64,0,0,0,8.9,3.53,12.27,12.27,0,0,0,6.37-1.65,11.37,11.37,0,0,0,4.39-4.65,16.14,16.14,0,0,0,0-14,11.15,11.15,0,0,0-4.39-4.66A12.54,12.54,0,0,0,246.53,26,11.61,11.61,0,0,0,237.63,29.5Z"/><path class="cls-1" d="M283.77,14.15c-1.26,1.14-1.88,3.12-1.88,5.94v1h8.58v5.28h-8.58v31h-6v-31h-5.22V21.08h5.22V19.63q0-13,14.59-12.41V12.5C287.25,12.46,285,13,283.77,14.15Z"/><path class="cls-1" d="M297.07,7.78a4.83,4.83,0,0,1,5.94,0,3.42,3.42,0,0,1,1.12,2.67A3.46,3.46,0,0,1,303,13.13a4.83,4.83,0,0,1-5.94,0A3.46,3.46,0,0,1,296,10.45,3.42,3.42,0,0,1,297.07,7.78ZM303,21.08V57.32h-6V21.08Z"/><path class="cls-1" d="M342,24.55q3.9,4.05,3.9,11.71V57.32h-6V36.79c0-3.61-.92-6.39-2.77-8.32a9.94,9.94,0,0,0-7.53-2.9,10.3,10.3,0,0,0-7.92,3.2q-3,3.21-3,9.34V57.32h-6V21.08h6v8.58a12.42,12.42,0,0,1,4.92-6.8,14.3,14.3,0,0,1,8.15-2.37A13.48,13.48,0,0,1,342,24.55Z"/><path class="cls-1" d="M376.31,23.82a13.46,13.46,0,0,1,4.52,8.61h-5.74a8.3,8.3,0,0,0-2.67-5.35,8.7,8.7,0,0,0-6.11-2,7.51,7.51,0,0,0-5,1.55,5.25,5.25,0,0,0-1.81,4.19,4.32,4.32,0,0,0,1.22,3.2,7.6,7.6,0,0,0,3,1.85,51.4,51.4,0,0,0,5,1.36,47.34,47.34,0,0,1,6.5,1.88,10.17,10.17,0,0,1,4.22,3.07,8.57,8.57,0,0,1,1.75,5.67,8.93,8.93,0,0,1-3.33,7.2q-3.33,2.78-8.88,2.77-6.47,0-10.56-3.1a12.37,12.37,0,0,1-4.89-8.64h5.81a7.58,7.58,0,0,0,2.87,5.35,10.38,10.38,0,0,0,6.7,2,6.91,6.91,0,0,0,4.85-1.59,5.3,5.3,0,0,0,1.77-4.16,4.55,4.55,0,0,0-1.25-3.36,8.33,8.33,0,0,0-3.1-1.92A45,45,0,0,0,366.09,41a51.3,51.3,0,0,1-6.43-1.85,10,10,0,0,1-4.1-2.94,8.23,8.23,0,0,1-1.68-5.45,9.1,9.1,0,0,1,3.37-7.36c2.24-1.87,5.3-2.81,9.17-2.8Q372.58,20.62,376.31,23.82Z"/></svg>